<svg viewBox="0 0 315 83" fill="none" xmlns="http://www.w3.org/2000/svg">
<path d="M277.904 64.7275C276.629 64.2043 275.354 63.6636 274.079 63.1404C273.87 63.0532 273.59 62.9834 273.398 63.0532C270.394 64.3089 267.757 63.0009 265.032 61.8324C264.298 62.1463 263.547 62.7218 262.814 62.7044C260.526 62.6172 258.255 62.3033 255.618 62.0417C254.657 62.4428 253.871 64.3613 251.95 63.3846C251.688 62.8963 251.391 62.3033 251.024 61.5882C249.731 61.7277 248.491 61.8673 247.146 62.0242C246.832 62.5649 246.5 63.0881 246.046 63.8555C245.819 63.0881 245.679 62.5649 245.47 61.8324C244.666 61.8847 243.81 61.9545 242.955 62.0068C241.714 61.1522 242.937 60.2278 242.902 59.0942C240.247 61.0824 237.226 60.4371 234.221 60.8557C234.536 61.1871 234.868 61.5533 235.322 62.0242C234.396 62.8963 233.348 62.0765 232.422 62.2161C231.252 62.3905 230.134 62.1812 229.418 60.9778C229.017 60.3325 228.213 60.2976 227.514 60.4894C226.851 60.6639 226.205 60.9429 225.576 61.2045C224.51 61.658 223.585 61.658 222.729 60.7336C220.982 58.7803 218.764 59.1988 216.563 59.5651C216.354 59.6 216.004 59.7046 215.969 59.8616C215.603 61.065 214.572 61.1348 213.716 60.9255C212.354 60.5767 211.288 60.9603 210.083 61.4836C209.315 61.8324 208.337 62.0068 207.358 61.0999C208.057 60.5941 208.651 60.1755 209.245 59.7395C209.035 59.5476 208.861 59.286 208.703 59.286C207.551 59.3209 206.398 59.443 205.245 59.4953C204.215 59.5302 203.184 59.4953 202.031 59.4953C201.717 59.8616 201.403 60.3499 200.983 60.7162C200.564 61.065 200.058 61.501 199.551 61.5533C197.944 61.6928 196.302 61.8498 194.87 60.8208C196.564 60.8208 198.259 60.8208 199.97 60.8208C199.935 60.3848 200.005 60.0185 199.9 59.9837C198.468 59.3209 196.931 59.1814 195.237 59.0942C195.132 59.8441 195.045 60.3848 194.975 60.9255C193.613 61.0999 194.172 59.7918 193.543 59.1291C192.931 59.4604 192.303 59.9314 191.604 60.1232C190.993 60.2976 190.294 60.1581 189.613 60.1581C189.526 60.8557 189.473 61.3964 189.403 61.937C188.949 62.0068 188.53 62.0766 187.727 62.1986C188.844 62.9486 189.63 63.5764 190.521 64.0473C191.394 64.5008 192.32 64.3613 193.211 63.9601C194.329 63.4544 195.447 63.4718 196.599 63.9776C197.001 64.152 197.612 64.3787 197.892 64.2043C199.062 63.4544 200.127 63.995 201.228 64.2915C201.909 64.4659 202.485 64.3962 203.132 63.8555C203.953 63.1404 204.861 63.5764 205.105 64.6229C205.228 65.1635 205.175 65.7216 205.21 66.1751C207.341 67.3785 209.367 66.3321 211.376 66.5239C210.136 65.4775 208.459 65.5298 207.044 64.6578C208.144 64.0648 208.144 64.0648 211.62 64.9542C212.266 65.7391 212.913 66.5065 213.507 67.2041C214.921 67.0471 214.083 65.7216 214.921 65.2507C220.004 65.4775 225.191 65.7042 230.361 65.9309C231.008 67.0122 230.169 67.6924 229.785 68.4947C229.313 68.7389 228.842 68.983 228.37 69.2272C228.737 70.2562 229.244 70.8143 230.187 70.6748C230.763 70.5876 230.589 69.7853 229.68 68.4249C229.907 68.4075 230.222 68.4598 230.361 68.3377C232.597 66.3321 235.2 66.5937 237.872 67.0471C239.182 67.2738 240.562 68.111 241.819 66.8378C243.059 67.082 244.422 67.082 245.487 67.6401C247.181 68.5121 248.893 68.8958 250.779 68.9481C251.548 68.9656 252.421 69.1923 253.033 69.6283C254.081 70.3608 255.059 70.4829 256.299 70.2388C257.347 70.0295 258.482 70.2736 258.307 72.0875C259.076 71.8259 259.6 71.6514 260.176 71.4596C260.526 71.9479 260.91 72.4712 261.207 72.8723C262.447 73.0293 262.028 71.8084 262.726 71.4945C264.106 71.1282 265.364 71.4422 266.447 72.5409C266.569 72.663 267.023 72.4712 267.32 72.4363L267.268 72.3839C267.617 72.8025 267.914 73.2734 268.315 73.6222C269.171 74.3373 269.8 73.9187 269.992 72.5409V72.5583C271.267 73.4129 272.42 74.4768 274.219 74.0931C274.621 74.0059 275.215 74.8431 275.704 75.2268C275.512 75.1221 275.337 75.0175 275.145 74.9477C275.092 74.9303 274.988 75.0349 274.918 75.0698C275.162 75.1047 275.424 75.1396 275.669 75.1744C276.053 74.8082 276.507 74.6861 276.874 75.1396C277.153 75.4884 277.311 75.9244 277.468 76.343C278.079 78.0173 278.428 78.1568 279.634 76.6918C280.524 75.6279 281.537 75.4535 282.743 75.6628C283.424 75.7849 284.087 76.029 284.751 76.2034C287.109 76.8139 289.467 77.4069 291.825 77.9998C292.873 78.2614 293.397 78.9242 293.344 80.0229L293.414 79.9183C291.947 80.0055 290.917 81.7147 289.065 81.0345C289.362 80.4066 289.642 79.8485 289.904 79.273C289.659 79.1858 289.362 78.9939 289.257 79.0637C287.79 80.1973 286.236 80.5636 284.384 80.0578C283.406 79.7962 282.306 79.866 281.275 79.8311C278.743 79.7439 276.21 79.6916 273.678 79.6044C272.962 79.5869 272.28 79.4125 271.896 78.7149C271.372 77.7382 270.499 77.8254 269.556 77.6685C267.704 77.3545 265.94 77.1452 264.124 77.7731C263.652 77.9301 262.988 77.7033 262.464 77.5115C261.993 77.3545 261.643 77.3545 261.172 77.5987C259.967 78.1917 258.814 77.8952 258.115 76.8313C257.521 75.9244 256.753 75.7326 255.81 75.5581C253.923 75.2093 251.932 75.157 250.22 73.6222C250.22 74.878 250.22 75.7674 250.22 76.6744C248.98 75.2442 248.98 75.2442 247.601 74.8256C246.273 74.4419 244.928 74.1803 243.706 73.4304C242.745 72.82 241.732 73.0816 240.771 73.6048C240.876 73.9362 240.911 74.1803 241.033 74.3547C241.732 75.3314 242.867 74.128 243.583 74.8256C244.247 75.4709 244.736 76.1337 245.924 75.7674C246.57 75.5581 247.443 76.0988 248.194 76.2906C248.09 77.1278 247.513 76.9011 247.129 76.8836C244.719 76.6743 242.256 76.6918 240.055 75.4186C239.601 75.157 238.623 74.9652 238.448 75.1744C237.296 76.5697 236.44 75.7674 235.217 75.2093C234.047 74.6687 232.527 74.8605 231.165 74.7559C230.816 74.721 230.449 74.8954 230.134 74.8082C228.388 74.285 226.694 74.5466 225.052 75.3314C224.423 74.8256 223.899 74.4071 223.375 73.9711C222.641 74.1978 221.908 74.4245 221.174 74.6512C221.174 73.8315 221.192 73.0292 221.192 72.2095C222.275 71.8956 223.358 71.5817 224.58 71.2329C224.912 71.477 225.419 71.8433 226.1 72.3491C225.453 70.2911 225.087 69.8725 223.969 70.0644C223.078 70.2213 222.222 70.5527 221.349 70.7969C221.279 71.3724 221.244 71.8084 221.192 72.2793C221.192 73.099 221.174 73.8838 221.157 74.6861C220.703 74.1803 220.231 73.6571 219.637 72.9944C217.995 73.2385 216.319 73.5874 214.607 73.7269C213.838 73.7966 212.965 73.6222 212.284 73.2909C210.677 72.506 208.913 72.5932 207.603 73.3606C206.014 74.285 204.442 74.1803 202.94 73.9536C199.953 73.5001 196.984 73.2909 193.962 73.4827C192.006 73.6048 190.015 73.0641 188.076 73.2385C185.264 73.5001 182.539 72.9769 179.797 72.82C179.133 72.7851 178.504 72.4886 177.753 72.2967C177.893 71.8258 178.068 71.4945 178.033 71.198C177.998 70.9364 177.771 70.5353 177.544 70.4829C177.299 70.4306 176.95 70.6573 176.67 70.7969C176.601 70.8317 176.566 71.0061 176.566 71.1108C176.496 71.7735 176.897 72.6804 176.094 72.9595C175.395 73.2037 174.522 73.099 173.754 72.9595C173.212 72.8723 172.671 72.5584 172.199 72.227C169.544 70.3608 166.592 70.3085 163.553 70.7794C163.099 70.8492 162.645 70.9538 162.208 71.041C162.505 70.6922 162.855 70.3783 163.012 69.9946C163.099 69.7853 162.872 69.4539 162.75 69.1749C162.732 69.14 162.488 69.1226 162.453 69.1749C162.313 69.3319 162.139 69.5411 162.139 69.733C162.121 70.169 162.208 70.605 162.243 71.041C163.379 71.2852 164.496 71.5468 165.614 71.791C165.632 72.82 164.898 72.7502 164.444 72.6107C162.732 72.0526 161.003 72.2793 159.274 72.227C157.789 72.1921 156.287 71.7212 154.82 71.7386C153.336 71.7735 151.868 72.2096 150.384 72.4014C149.947 72.4537 149.371 72.384 149.039 72.1398C147.781 71.1806 146.402 71.3898 145.039 71.6166C143.851 71.8084 143.397 71.0061 142.821 69.9946C141.668 69.9946 140.411 69.9946 139.153 69.9946C138.804 69.9946 138.332 69.8899 138.14 70.0644C136.708 71.4247 135.101 70.7969 133.511 70.5701C131.241 70.2736 128.97 70.0992 126.682 70.3957C125.931 70.5004 125.145 70.2213 124.394 70.1167C123.94 71.2503 125.145 71.1457 125.372 71.7038C125.233 71.8607 125.093 72.1572 124.953 72.1572C124.621 72.1747 124.254 72.1224 123.957 71.9654C122.525 71.2503 121.303 71.2678 119.713 72.0003C117.268 73.1165 114.491 72.9072 111.853 72.3839C111.032 72.227 110.334 72.0177 109.548 72.4188C108.325 73.0293 107.068 72.8548 106.369 72.5235C104.832 71.7212 106.579 69.7853 104.413 69.6109C104.256 70.6399 104.098 71.6166 103.959 72.6107C101.583 73.4478 99.2952 72.663 97.112 72.9246C95.6273 70.169 95.6273 70.169 93.6886 70.5701C93.3567 71.6166 94.6318 71.355 94.8239 71.9654C94.8937 72.1747 94.9112 72.4363 94.8414 72.6107C94.7715 72.7851 94.5444 73.0118 94.3698 73.0293C94.0379 73.0467 93.6886 72.9595 93.3567 72.8897C92.1516 72.5932 90.9813 72.1747 89.7412 73.0118C89.3395 73.2909 88.5885 73.1862 88.0296 73.0816C85.8288 72.6281 83.6281 72.9246 81.4448 73.0641C80.292 73.1339 79.1567 73.3432 78.0214 72.8897C77.6197 72.7328 77.1132 72.7851 76.6416 72.82C72.9562 72.9944 69.2709 73.1862 65.5855 73.3257C65.0441 73.3432 64.4851 73.1688 63.9437 73.0641C63.6293 73.0118 63.2276 72.7502 63.018 72.8723C59.8566 74.5815 56.5729 74.0931 53.2544 73.5873C51.8745 73.3781 50.4947 73.3955 49.1498 74.0059C47.8399 74.5989 46.4426 74.4245 45.0453 74.4071C42.7572 74.3722 40.5914 73.692 38.3557 73.3257C35.9628 72.942 33.7447 73.0293 31.6138 74.2327C29.937 75.1745 28.138 75.4361 26.2691 75.0872C25.0989 74.8605 23.9985 75.1221 22.8458 75.2268C17.3265 75.75 11.8071 76.8662 6.23542 75.6628C6.02582 75.6105 5.78131 75.6977 5.55425 75.7151C5.51932 75.3837 5.53675 75.0524 5.43196 74.7384C5.39702 74.6163 5.10012 74.5815 4.92545 74.5117C4.89052 74.6861 4.78574 74.9477 4.85561 75.0349C5.08267 75.2791 5.37959 75.4361 5.64159 75.6279C5.13507 76.0116 4.54119 76.2209 4.08707 75.7151C3.1439 74.7036 2.27059 73.6222 1.37981 72.5583C1.13528 72.2619 1.15277 72.227 1.92128 70.9538C1.39729 70.5004 0.855843 70.012 0 69.2446C0.873309 69.0528 1.37981 68.9307 1.9038 68.8261C1.93873 68.6168 2.06102 68.3726 1.97369 68.2157C1.17024 66.7681 0.716096 65.3031 1.20515 63.6113C1.36235 63.1055 1.17023 62.4602 1.04797 61.9021C0.698647 60.036 1.18769 58.7105 3.52816 58.3442C3.07404 57.542 2.67233 57.0013 2.44527 56.3909C2.09594 55.4491 2.63738 54.4376 3.56308 54.1934C4.94291 53.8446 6.27034 54.019 7.66764 54.4201C9.86838 55.0654 12.1215 55.484 14.3747 55.92C14.8987 56.0247 15.475 55.763 16.034 55.6758C15.999 54.6468 15.1956 54.9957 14.7938 54.7515C14.3048 54.455 13.7633 54.2283 13.2219 54.019C12.6979 53.8097 12.139 53.6876 11.5801 53.1993C12.2438 53.1469 12.9075 53.1121 13.5537 53.0598C14.0253 52.4144 13.5712 52.1703 13.1695 51.961C12.5407 51.6296 11.8421 51.2634 11.877 50.4785C11.9294 49.2402 11.3006 47.9322 12.0866 46.7462C12.3136 46.3974 12.7503 46.1881 13.2044 45.8393C12.9773 45.4033 12.7503 45.0196 12.5757 44.6185C11.9818 43.136 12.1914 42.5779 13.6236 41.8978C14.4445 41.4966 15.2829 41.1478 16.0689 40.799C16.034 40.3455 16.0165 40.0142 15.9816 39.5956C17.2915 39.3689 18.6364 39.5956 19.9813 38.9329C20.9769 38.4445 22.4615 38.8805 23.7191 38.9852C24.7496 39.0724 25.7626 39.3863 26.4962 38.2352C26.6883 37.9387 27.3171 37.8864 27.7537 37.8166C32.7491 36.9097 37.7444 36.1249 42.8446 36.1424C44.8881 36.1424 46.9491 35.5145 48.9926 35.1308C50.9139 34.7645 52.8003 34.032 54.8089 34.782C54.739 35.1133 54.6342 35.4098 54.5993 35.7238C54.5818 35.9156 54.6691 36.1249 54.7565 36.2993C54.7914 36.3516 55.0534 36.3691 55.0534 36.3516C55.1407 36.09 55.3154 35.7935 55.263 35.5668C55.1931 35.2703 54.9137 35.0262 54.7216 34.7471C57.2192 34.2936 59.7169 33.8227 62.2145 33.3867C63.1228 33.2298 64.0834 32.9507 64.9742 33.0728C67.3321 33.3867 69.5503 32.7066 71.8209 32.3926C73.4278 32.1659 75.0173 31.8171 76.6416 32.288C77.0608 32.4101 77.5848 32.41 78.0214 32.2705C81.0955 31.3462 84.2394 31.9043 87.3483 31.8345C88.0121 31.8171 88.6933 31.6601 89.3395 31.4857C89.7762 31.3811 90.2128 30.945 90.5971 31.0148C93.1821 31.4683 95.5924 30.3695 98.1075 30.23C100.535 30.1079 102.963 30.0381 105.373 29.8812C108.832 29.6544 112.29 29.3231 115.748 29.0963C117.233 29.0091 118.718 29.0789 120.377 29.0789C120.639 28.6254 120.971 28.0325 121.372 27.3174C122.944 26.9686 124.429 27.5616 125.791 28.2941C126.525 27.5964 126.28 27.1256 125.652 26.8988C123.888 26.3058 122.124 25.957 120.22 26.3582C118.91 26.6372 117.512 26.8814 116.185 26.0966C115.923 25.9396 115.364 26.1489 114.98 26.3058C114.299 26.5849 113.897 26.1663 113.46 25.8001C113.251 25.7826 113.059 25.7303 112.866 25.7303C112.832 25.7303 112.797 25.8524 112.762 25.9047C113.006 25.8524 113.268 25.7826 113.513 25.7303C111.958 27.6836 111.26 27.736 109.146 25.9919C108.919 25.7652 108.71 25.5385 108.465 25.3117C108.413 25.2594 108.273 25.2943 108.168 25.2943C108.203 25.4687 108.203 25.7477 108.29 25.7826C108.587 25.8698 108.902 25.8698 109.216 25.9047C106.072 28.1545 105.321 28.1545 102.003 25.8524C101.531 26.4279 101.042 27.0035 100.413 27.7534C97.2866 27.3872 94.0729 27.0732 90.8766 26.6198C89.6889 26.4454 88.6234 26.3756 87.5056 26.9163C86.8069 27.2476 85.9511 27.3523 85.1476 27.3697C83.174 27.422 81.2003 27.3872 79.2441 27.3174C78.6851 27.3 78.0913 27.143 77.5848 26.8988C76.7813 26.4977 75.9779 26.393 75.2792 26.9337C74.0741 27.8755 72.8689 27.5441 71.6463 27.1081C70.8952 26.8465 70.1791 26.4628 69.2185 26.0268C68.8692 26.707 68.5897 27.2651 68.188 28.0325C67.629 27.8406 67.0002 27.422 66.3889 27.4744C65.7427 27.5092 65.1314 27.9627 64.3629 28.3115C63.9262 27.7709 63.4721 27.1779 62.983 26.5674C61.3237 28.608 61.2364 28.6778 58.9833 28.7475C58.0576 28.7824 57.0446 28.9219 56.2062 28.6255C54.0578 27.8581 51.8396 28.329 49.6564 28.0325C48.556 27.8929 47.3334 28.1894 46.2505 28.5034C44.5213 29.0091 42.7921 28.8696 41.063 28.7127C39.8054 28.5906 38.5828 28.1371 37.3252 28.8173C37.0108 28.9743 36.4519 28.7301 36.0327 28.5906C35.0721 28.2941 34.1289 27.9453 32.4347 27.3523C33.4303 28.451 33.9193 28.9742 34.4608 29.5672C33.7097 30.4567 32.6618 30.7706 31.9282 30.4044C30.1641 29.4975 28.5048 30.2125 26.8106 30.3521C25.7801 30.4218 24.767 30.7881 23.754 30.3346C23.6667 29.044 23.7016 27.7709 23.4396 26.5674C23.1776 25.364 22.6187 24.213 22.1122 22.8526C22.9156 22.7654 23.492 22.591 24.0334 22.6433C27.3695 22.9921 30.6531 22.7305 33.9542 22.155C35.893 21.8062 37.8492 21.9282 39.8229 22.3643C42.4778 22.9572 45.1326 22.2596 47.7351 21.7364C51.0537 21.0562 54.3722 20.69 57.7607 20.6376C64.0135 20.5504 70.2839 20.4807 76.5368 20.1493C78.9471 20.0272 81.0955 20.5679 83.401 21.2306C83.8027 20.8818 84.2568 20.3586 84.8158 20.0621C85.3048 19.8179 85.9336 19.7482 86.4925 19.7656C87.7676 19.783 89.06 19.8179 90.3176 20.0098C91.3656 20.1842 92.3612 20.3063 93.4091 20.0621C94.754 19.7307 95.9417 20.0621 96.8325 21.5097C97.3565 20.8469 97.7408 20.3411 98.1599 19.783C99.8542 19.9575 101.583 20.0621 103.278 20.3237C106.421 20.812 109.496 19.94 112.622 19.9923C114.002 20.0098 115.451 19.8354 116.779 20.1493C119.661 20.8469 122.525 20.0795 125.39 20.2365C125.704 20.2539 126.106 20.097 126.333 19.8877C127.259 19.0505 128.289 19.3296 129.302 19.5563C131.119 19.9749 132.935 20.2191 134.734 19.6086C135.276 20.2016 135.73 20.69 136.149 21.1434C136.97 20.9865 137.354 20.254 138.35 20.3412C140.149 20.4981 141.86 21.405 143.764 20.9516C144.218 20.8469 144.917 21.5794 145.458 22.0155C146.174 22.591 146.786 23.3758 148.008 22.8177C147.904 22.5387 147.816 22.2596 147.694 21.9806C147.572 21.7015 147.45 21.4225 147.205 20.8644C148.917 20.9516 150.401 20.9865 151.868 21.126C154.279 21.3702 156.672 21.6666 159.065 21.998C159.361 22.0329 159.641 22.3643 159.92 22.5561C159.711 22.5735 159.484 22.5561 159.274 22.6084C159.082 22.6608 158.907 22.8003 158.733 22.9224C158.89 23.1665 159.03 23.463 159.239 23.6549C159.361 23.7595 159.816 23.6723 159.816 23.6374C159.833 23.2537 159.816 22.87 159.816 22.4863C159.938 22.5038 160.043 22.5561 160.165 22.5561C161.527 22.4515 162.907 22.2596 164.269 22.2771C165.667 22.2945 166.453 23.9514 168.06 23.7595C168.601 23.6898 169.3 24.3002 169.806 24.7362C171.186 25.9396 172.653 26.4628 174.522 26.1663C178.679 25.4861 182.871 26.1663 187.045 25.957C188.722 27.0383 190.608 25.7129 192.373 26.4279C192.914 26.6546 193.735 26.3058 194.381 26.114C197.228 25.2768 200.04 25.1373 202.765 26.5151C202.643 27.0035 202.538 27.4046 202.398 27.9104C204.354 27.7011 205.891 25.521 207.97 27.0209C208.005 28.6603 208.005 28.6603 209.559 29.2359C209.874 28.5557 210.188 27.8755 210.555 27.0558C211.743 27.0558 212.965 27.0558 214.1 27.0558C214.904 28.451 213.157 28.2069 213.122 28.9917C213.262 29.1312 213.454 29.4277 213.559 29.3928C215.55 28.887 217.506 28.3289 219.497 27.8232C219.794 27.736 220.144 27.8057 220.65 27.8057C220.441 28.5557 220.266 29.1661 220.074 29.794C220.65 30.2649 221.157 30.1428 221.559 29.6196C221.978 29.0789 222.344 28.4685 222.764 27.8406C224.475 28.015 226.17 28.2069 227.864 28.3638C228.527 28.4162 229.541 28.1371 229.785 28.4685C230.728 29.7416 232.824 29.1835 233.488 31.0846C232.632 32.1833 230.99 31.8171 229.663 32.7937C230.554 33.0554 231.165 33.2298 231.864 33.4216C232.457 34.8866 231.654 35.811 230.536 36.5958C229.261 37.4853 227.969 37.5376 226.728 36.5435C226.449 35.6366 228.824 35.7587 227.48 34.4855C226.065 34.2413 225.209 35.3401 224.074 35.9331C223.899 35.4622 223.742 35.061 223.585 34.6076C222.572 34.7645 221.524 34.8343 220.511 35.0785C219.463 35.3401 218.519 35.3924 217.454 35.0087C216.668 34.7122 215.707 34.8692 214.677 34.8169C214.485 34.5553 214.258 33.9797 213.821 33.6658C213.28 33.2821 213.087 33.9099 212.808 34.2588C212.686 34.4157 212.441 34.6076 212.249 34.5901C211.341 34.5378 210.101 34.7471 209.577 34.2413C208.075 32.8112 206.363 33.1949 204.651 33.1077C203.516 33.0554 202.311 34.2064 201.245 32.9333C200.093 33.5611 198.748 33.1077 197.665 33.4216C195.464 34.0669 193.56 33.4914 191.569 32.8635C191.15 32.724 190.731 32.5321 190.259 32.3229C190.084 32.881 189.945 33.2995 189.857 33.596C185.666 33.753 181.526 33.9099 177.369 34.0844C175.745 34.1541 174.138 34.346 172.513 34.3983C169.509 34.5204 166.523 34.8866 163.501 34.6773C162.593 34.6076 161.719 34.5029 160.829 34.3809C158.907 34.1541 157.003 33.3693 155.03 33.9448C154.191 34.189 153.44 33.9623 152.689 33.5611C150.855 32.5845 148.917 32.5321 146.943 33.0728C146.332 33.6832 146.681 34.3634 146.786 35.0261V35.0087C146.174 34.7297 145.528 34.1716 144.969 34.2413C142.926 34.5204 140.9 35.0262 138.856 35.4447C138.804 36.2121 139.38 36.4912 139.939 36.5086C141.79 36.6132 143.642 36.6307 145.493 36.6307C147.816 36.6307 150.139 36.4563 152.445 36.6132C154.384 36.7353 156.392 36.0726 158.296 36.9621C158.506 37.0667 158.907 36.7004 159.222 36.6132C159.868 36.4214 160.532 36.1598 161.195 36.1424C163.833 36.09 166.435 36.5435 169.09 36.0377C170.627 35.7412 172.304 36.2644 173.928 36.3691C177.631 36.6307 181.351 36.8748 185.054 37.1539C185.631 37.1888 186.207 37.3283 186.748 37.5202C188.408 38.1131 189.927 39.4561 191.866 38.4271C193.106 39.3514 194.608 38.6887 195.901 39.0724C197.106 39.4212 197.909 37.8864 199.167 38.7061C200.232 39.3863 201.088 38.2003 202.084 38.0259C203.795 37.712 205.472 37.2062 207.254 37.5725C208.04 37.7294 208.878 37.7294 209.682 37.7294C212.773 37.7469 213.314 37.9038 216.284 39.7526C216.965 39.6305 217.768 39.4561 218.572 39.3514C219.375 39.2642 220.179 39.2468 220.982 39.2119C221.331 40.3107 222.641 39.7351 223.27 40.5374C223.707 41.0955 224.598 41.2873 225.349 41.6536C226.012 40.4502 224.388 40.3804 224.668 39.2642C224.982 39.2293 225.384 39.1421 225.785 39.1596C226.694 39.177 227.654 39.4212 228.51 39.2119C229.488 38.9677 230.309 38.9677 231.165 39.4735C232.038 39.9793 232.877 39.927 233.802 39.4561C236.527 38.0434 238.239 38.8108 239.409 41.3745C239.846 42.3512 239.898 42.3163 241.225 42.6128C241.121 42.107 241.016 41.6361 240.911 41.1652C241.156 41.0083 241.33 40.7816 241.522 40.7641C242.675 40.7292 243.828 40.7467 245.05 40.7467C245.19 41.235 245.347 41.7408 245.505 42.264C247.129 43.1884 247.636 41.3048 248.788 40.956C249.26 41.2699 249.714 41.5664 250.098 41.8106C251.321 41.6361 252.509 41.1827 253.557 41.4094C254.552 41.6187 255.373 42.5431 256.386 43.2232C256.683 42.6303 256.893 42.2291 257.085 41.828C257.294 41.7757 257.521 41.671 257.731 41.6885C259.111 41.7931 260.438 42.4384 261.853 41.8803C262.132 41.7757 262.674 41.7931 262.831 41.985C263.757 43.0488 264.351 42.2466 265.172 41.7931C265.888 41.392 266.778 41.4966 267.268 42.4384C267.163 42.8047 267.058 43.136 266.936 43.4848C267.023 43.5023 267.128 43.5023 267.215 43.5197C267.215 43.136 267.215 42.7349 267.215 42.3512C268.35 42.5779 269.486 42.7698 270.621 43.014C271.634 43.2232 272.647 43.45 273.887 43.729C274.009 44.3569 274.341 45.1417 274.254 45.8742C274.167 46.7114 273.293 47.3218 273.678 48.4554C273.852 48.9786 273.066 49.8158 272.647 50.6006C272.996 51.2459 273.363 51.9436 273.782 52.7109C273.555 52.9551 273.363 53.2167 273.119 53.4086C272.228 54.0364 272.175 54.6643 273.101 55.3793C274.079 55.2398 273.782 53.8271 274.918 53.6702C276.14 53.4783 276.472 54.5073 277.328 54.9259C277.922 54.734 278.621 54.612 279.232 54.3155C279.738 54.0713 280.123 53.6179 280.629 53.2167C284.891 54.5422 289.432 53.2342 293.868 54.612C294.096 55.1875 294.323 55.8328 294.602 56.4432C294.829 56.9316 295.109 57.3676 295.388 57.8734C296.715 57.0362 295.336 56.0247 296.069 55.048C296.331 55.0829 296.943 55.0131 297.082 55.2224C297.571 55.9898 297.816 56.9316 298.322 57.6815C298.584 58.0478 299.248 58.135 300.104 58.5012C299.667 57.5071 299.423 56.9316 299.196 56.4083C299.318 56.2339 299.37 56.077 299.44 56.077C300.785 55.8502 302.095 55.0829 303.51 55.5886C304.96 56.1119 306.444 56.2688 307.964 56.1293C310.217 55.92 311.981 57.0885 313.78 58.1001C314.636 58.5884 315.09 59.443 314.985 60.4546C314.845 61.9196 315.09 63.5241 313.57 64.5531C313.361 64.6926 313.326 65.1635 313.291 65.4775C313.151 66.6634 312.33 66.9599 311.335 67.0297C310.985 67.0471 310.636 67.0646 310.287 67.0471C308.68 66.925 307.073 66.8204 305.466 66.6285C303.894 66.4367 302.392 65.7565 300.715 66.0704C300.104 66.1751 299.213 65.9135 298.776 65.4949C297.921 64.6752 296.96 65.3903 296.139 65.0414L296.174 65.1286C294.969 64.1345 294.916 64.1345 293.956 65.1286L293.991 65.0414C293.502 64.7973 293.013 64.5357 292.506 64.3089C292.017 64.0822 291.528 63.9078 291.004 63.6985C290.847 64.3264 290.742 64.7275 290.655 65.0938C287.755 65.7914 285.415 64.1345 282.743 63.1404C282.743 63.7508 282.795 64.0822 282.725 64.3962C282.585 65.1112 282.061 65.3031 281.555 64.8496C281.398 64.7101 281.363 64.4136 281.205 64.2566C281.066 64.0997 280.839 64.0124 280.577 63.838C279.686 64.152 278.725 64.4833 277.782 64.7973L277.904 64.7275ZM260.316 52.2052C260.246 52.6586 260.176 53.1121 260.141 53.5481C260.141 53.6178 260.333 53.7748 260.368 53.7574C260.543 53.6527 260.84 53.4609 260.805 53.3911C260.665 52.9726 260.456 52.5714 260.281 52.1703C260.648 52.24 261.015 52.3098 261.364 52.3621C261.381 52.2749 261.381 52.1703 261.399 52.0831C261.032 52.118 260.683 52.1703 260.316 52.2052ZM245.679 48.6298C245.452 48.6473 245.243 48.6647 245.016 48.6996C245.243 48.6822 245.487 48.6647 245.714 48.6473C245.941 49.6065 246.727 50.2344 246.64 49.7635C246.588 49.3275 246.029 48.9961 245.679 48.6298ZM102.736 38.8108C101.286 38.5491 99.9415 38.8805 98.0726 39.4386C99.7668 39.9444 100.972 39.6828 102.16 39.5956C102.352 39.5781 102.509 39.0898 102.649 38.8108C102.544 38.148 102.544 37.4504 102.264 36.8749C102.142 36.6132 101.478 36.5609 101.059 36.5086C100.92 36.4912 100.588 36.7877 100.605 36.9097C100.64 37.2062 100.745 37.6074 100.972 37.7643C101.531 38.1655 102.142 38.4794 102.736 38.8108ZM134.245 28.5208C134.35 28.7824 134.455 29.044 134.402 28.9394C134.472 29.0615 134.332 28.8347 134.193 28.608C134.297 27.579 134.525 26.5151 133.616 25.7303C133.407 25.5384 132.935 25.4513 132.691 25.5733C132.464 25.678 132.271 26.114 132.289 26.393C132.376 27.579 133.249 28.1197 134.245 28.5208ZM253.749 52.9202C254.954 53.2167 256.159 53.5306 257.382 53.8097C257.818 53.9143 258.412 53.8795 258.377 53.3214C258.36 53.0423 257.731 52.5889 257.399 52.6063C256.159 52.6412 254.936 52.8505 253.696 52.99C254.5 50.5832 254.5 50.6006 256.893 50.8099C257.015 50.8273 257.137 50.8448 257.242 50.8099C257.434 50.7227 257.783 50.5657 257.766 50.4785C257.714 50.182 257.574 49.6763 257.399 49.6588C255.495 49.3275 253.591 48.9961 251.303 49.4321C251.775 50.182 252.054 50.6529 252.369 51.089C252.806 51.6994 253.766 51.9435 253.749 52.9202ZM94.3348 61.4312C91.4704 61.4661 88.6408 61.3964 86.3004 59.3384C86.1606 59.2163 85.8638 59.2512 85.6367 59.1988C85.6891 58.8151 85.759 58.4489 85.8114 58.0652C85.7764 58.0652 85.759 58.0652 85.724 58.0478C85.6891 58.4315 85.6541 58.7977 85.6192 59.1814C85.4969 59.8441 84.5363 60.6115 86.0209 61.0301C86.51 61.1696 86.7545 62.3033 87.2087 62.373C89.1299 62.6347 91.0861 62.7044 93.0423 62.7567C93.9156 62.7742 94.1252 62.0417 94.2475 61.3266C94.8413 61.6231 95.4003 62.0417 96.0116 62.1812C96.7277 62.3381 97.3041 61.9893 97.4089 61.1347C96.5006 60.4546 95.5226 59.9662 94.2825 60.3848C94.2999 60.7685 94.3174 61.0999 94.3348 61.4312ZM124.813 47.9496C126.542 47.9148 128.464 47.3915 129.966 47.9671C131.992 48.7345 133.564 47.6706 135.345 47.6357C136.149 47.6183 136.952 47.7927 137.738 47.9496C140.917 48.5775 144.061 49.3274 147.345 48.6647C148.463 48.438 149.633 48.5077 150.751 48.3682C151.17 48.3159 151.571 48.0369 151.973 47.8101C152.427 47.566 152.864 47.2695 153.388 46.9555C153.999 47.9148 154.488 48.6647 154.977 49.4147C156.305 49.2926 157.562 49.2751 158.785 49.0135C160.357 48.6996 161.894 48.2461 163.431 47.7578C164.601 47.3915 165.824 47.3218 166.819 47.8624C168.164 48.5949 169.509 48.4031 170.819 48.2985C173.247 48.1066 175.64 47.9322 178.068 48.124C179.43 48.2287 180.827 47.9671 182.207 47.9148C182.888 47.8973 183.552 47.9671 184.233 48.0368C184.914 48.0892 185.596 48.1938 186.329 48.2636C186.486 47.845 186.574 47.5311 186.696 47.2346C186.853 46.8683 187.569 46.7811 187.168 45.9963C186.731 45.9091 186.19 45.7347 185.631 45.6998C185.072 45.6649 184.495 45.8219 183.919 45.8219C182.19 45.787 180.443 45.9091 178.766 45.5952C177.282 45.3161 175.902 44.9847 174.365 45.4556C173.247 45.8045 172.024 45.6649 171.361 44.3743C171.605 44.4441 171.85 44.4964 172.234 44.6011C171.867 44.4964 171.623 44.4266 171.378 44.3569C170.994 45.8917 169.911 46.4846 168.496 46.1533C166.68 45.7347 164.933 45.3335 163.099 46.1358C162.663 46.3277 161.981 45.9614 161.422 45.8917C159.484 45.6126 157.44 44.8627 155.606 45.2289C153.336 45.6824 151.257 45.4382 149.056 44.9673C148.305 45.5777 147.607 46.1533 147.083 46.5718C145.511 46.38 144.113 46.3451 142.786 45.9963C141.266 45.6126 139.817 45.63 138.315 45.9091C137.791 46.0137 137.092 45.8742 136.673 45.5777C136.271 45.2987 136.044 44.6708 135.904 44.1476C135.712 43.3802 135.153 43.1535 134.629 43.45C134.263 43.6593 134.123 44.3046 133.826 44.8452C133.494 44.9324 133.057 45.1243 132.603 45.1766C130.926 45.3335 129.127 44.601 127.573 45.944C127.328 46.1533 126.682 45.9614 126.228 45.8742C125.46 45.7172 124.726 45.508 123.486 45.194C124.08 46.4149 124.464 47.1997 124.831 47.9671C124.167 47.7403 123.468 47.5834 122.857 47.2869C121.128 46.4149 119.416 46.1358 117.495 46.6416C115.766 47.0951 114.054 46.8683 112.517 45.7696C111.731 45.194 110.823 45.1417 109.915 45.4556C109.792 45.9091 109.67 46.3277 109.618 46.5195C106.788 46.816 104.151 47.0951 101.513 47.3392C100.815 47.409 100.116 47.3741 99.435 47.3741C96.3085 47.3916 93.1995 47.4264 90.0731 47.4264C87.6802 47.4264 85.4446 48.281 83.139 48.5252C83.174 49.3972 83.6106 49.5019 84.0822 49.4321C87.0689 49.0484 90.0556 49.0135 93.0598 49.3623C94.6842 49.5542 96.4133 48.281 98.0027 49.6763C98.125 49.7809 98.5966 49.4321 98.9284 49.3449C99.3651 49.2054 99.8542 48.9612 100.256 49.031C102.422 49.3972 104.622 48.595 106.806 49.31C107.627 49.5891 108.902 49.6588 109.495 49.2228C111.522 47.7229 113.827 48.1764 115.853 48.438C118.962 48.8566 121.862 48.717 124.813 47.9496ZM227.776 49.5716C226.257 47.6706 224.685 47.1648 222.886 47.7752C222.694 47.845 222.362 47.7752 222.222 47.6357C221.104 46.5718 219.794 47.0253 218.589 47.2346C216.214 47.6183 213.786 47.3915 211.411 47.9148C211.044 48.002 210.31 47.7752 210.205 47.4962C209.367 45.4731 207.498 46.3277 206.083 45.9091C203.411 47.1299 200.651 46.7114 197.892 46.3451C195.796 46.0835 193.787 46.4672 191.569 47.0078C191.814 47.9148 191.988 48.6473 192.198 49.3972C192.739 49.3449 193.089 49.3798 193.403 49.2751C194.94 48.717 196.477 48.1764 198.136 48.8217C198.346 48.9089 198.643 48.9612 198.818 48.8566C200.879 47.6532 202.817 48.5601 204.791 49.1356C205.42 49.3275 206.136 49.2926 206.8 49.31C207.83 49.3623 208.878 49.2751 209.909 49.4321C211.428 49.6414 212.878 49.6239 214.38 49.2228C215.341 48.9612 216.441 49.0658 217.454 49.153C219.393 49.3275 221.297 49.7112 223.253 49.2228C223.62 49.1356 224.091 49.3275 224.493 49.4844C224.895 49.6588 225.244 50.0774 225.646 50.1297C227.584 50.3564 229.523 50.7925 231.497 50.339C232.615 50.0948 233.732 49.9553 234.885 49.7635C235.06 49.2926 235.2 48.8391 235.409 48.4205C235.671 47.9148 236.108 47.4439 236.23 46.9206C236.352 46.4497 236.143 45.9091 236.073 45.2638C234.588 46.4846 234.588 46.4846 233.016 46.659C232.859 47.252 232.702 47.8276 232.492 48.6124C231.776 47.9845 231.27 47.5485 230.746 47.0776C229.733 47.2869 228.737 47.5136 227.829 47.7055C227.776 48.124 227.776 48.438 227.776 49.5716ZM185.351 63.4195C185.456 62.4951 185.543 61.7801 185.666 60.8383C183.465 60.8383 181.543 60.8383 178.924 60.8383C178.679 60.472 178.068 59.6349 177.474 58.7628C176.967 59.3035 176.636 59.6697 176.286 60.0534C175.64 59.4081 175.098 58.85 174.522 58.2745C174.243 58.8152 174.051 59.1989 173.754 59.757C171.955 59.5651 170.121 59.3907 168.234 59.1988C167.937 59.6349 167.588 60.1581 167.239 60.6639C166.208 60.0709 165.405 59.3384 164.462 59.1116C162.89 58.7279 161.248 58.6756 159.641 58.5012C159.187 58.4489 158.698 58.4838 158.715 59.164C159.85 59.9314 161.021 60.0709 162.348 59.6872C163.169 59.443 164.13 59.3384 164.828 60.2802C164.514 60.4023 163.187 61.3091 163.012 61.4836C164.112 61.8324 165.317 62.6172 166.261 62.3905C167.833 62.0068 168.566 62.9311 169.509 63.8032C170.103 63.0881 170.61 62.4777 171.116 61.8673C172.164 62.1638 173.16 62.7393 174.103 62.6695C177.09 62.4777 180.076 62.9486 183.063 62.4951C183.604 62.373 184.268 62.9486 185.351 63.4195ZM122.944 59.8616C122.63 59.5128 122.473 59.1988 122.333 59.1988C118.945 59.286 115.556 59.4256 111.941 59.5651C112.936 60.5418 112.936 60.5418 115.277 60.9603C114.962 61.8847 114.194 61.501 113.565 61.5882C111.015 61.9196 109.251 60.4022 107.487 58.8326C106.683 59.3732 105.967 59.7569 105.373 60.2976C104.919 60.6987 104.745 61.4487 105.251 61.8324C105.601 62.1114 106.334 62.0765 106.823 61.9545C107.155 61.8673 107.365 61.3789 107.382 61.3615C109.234 61.6405 110.683 61.9196 112.15 62.0591C113.181 62.1637 114.229 62.0766 115.277 62.1114C117.914 62.1986 117.914 62.1986 120.01 60.6987C121.704 61.2045 121.704 61.2045 122.944 59.8616ZM144.341 60.315C146 60.8731 147.24 61.8673 148.952 60.9778C149.633 60.6115 150.436 60.6987 151.24 61.1696C152.095 61.6929 153.143 61.9196 154.139 62.1637C154.366 62.2161 154.803 61.8847 154.925 61.6231C154.995 61.4487 154.663 61.0999 154.523 60.8208C154.419 60.629 154.331 60.4371 154.226 60.2453C154.174 59.7046 155.222 59.4953 154.663 58.7977C147.886 58.9024 147.135 59.007 144.341 60.315ZM134.018 60.7162C133.983 61.7277 134.402 62.1812 135.258 62.1114C136.166 62.0417 137.197 61.5533 137.965 61.8324C140.149 62.6172 142.664 61.3092 144.69 62.9311C144.742 62.966 145.092 62.7393 145.179 62.5649C145.266 62.3905 145.249 61.9894 145.144 61.937C144.323 61.5533 143.502 61.1173 142.629 60.908C140.9 60.4895 139.293 59.9488 138.454 58.4314C137.511 58.2745 136.795 58.9721 136.027 58.0303C135.258 57.0885 135.049 57.2629 134.577 59.1116C135.625 59.5651 136.69 60.0186 138.262 60.7162C136.498 60.7162 135.258 60.7162 134.018 60.7162ZM73.3405 62.3382C74.1265 62.3382 74.9474 62.094 75.4015 62.373C77.3577 63.6462 79.279 63.1055 81.4098 62.7044C79.279 60.5418 79.279 60.5418 73.5151 60.1581C73.3405 60.1406 73.1658 60.3848 72.9038 60.5418C73.061 61.1696 73.2182 61.8149 73.3405 62.3382ZM67.5941 50.7053C67.14 50.1646 66.9129 49.7111 66.5636 49.5367C65.4982 48.9612 64.2057 48.8217 63.2625 49.467C62.1097 50.2867 61.2713 50.4088 60.2408 49.4147C60.136 49.31 59.6295 49.5019 59.3675 49.6588C59.2627 49.7286 59.2453 50.0774 59.2977 50.2693C59.4374 50.6878 59.647 51.0889 59.8217 51.4552C61.1491 51.4552 62.4066 51.5424 63.6467 51.4378C64.8868 51.3157 66.092 51.0018 67.5941 50.7053ZM37.7794 63.716C37.7095 63.559 37.6396 63.2451 37.5697 63.2451C35.5437 63.1753 33.5525 63.402 31.3169 63.8032C34.2687 65.46 34.4957 65.4426 37.7794 63.716ZM284.384 55.2049C284.402 55.3968 284.437 55.5886 284.454 55.7805C286.026 56.0072 287.581 56.2339 289.153 56.4258C289.362 56.4607 289.659 56.3909 289.799 56.2688C290.026 56.0421 290.305 55.7282 290.305 55.4665C290.288 55.2049 289.939 54.7515 289.729 54.7515C288.244 54.734 286.742 54.8038 285.258 54.8736C284.961 54.8736 284.664 55.0828 284.384 55.2049ZM129.093 61.5882C129.512 60.4546 129.145 59.9139 128.429 59.6349C128.01 59.4779 127.521 59.443 127.066 59.4779C125.791 59.5651 124.761 60.2976 125.058 60.8731C125.46 61.6928 126.246 61.3964 126.892 61.4661C127.556 61.5359 128.254 61.5533 129.093 61.5882ZM186.574 71.9654C184.862 70.3783 184.513 70.2388 181.945 70.0818C181.613 70.0643 181.247 70.3608 180.338 70.7445C182.574 71.5119 184.146 72.2619 186.574 71.9654ZM218.135 56.3909C216.476 54.7689 214.869 53.5307 212.197 53.2167C214.345 54.3678 215.55 56.1293 218.135 56.3909ZM266.412 74.285C265.329 74.4594 264.421 74.5292 263.547 74.7733C262.726 75 261.923 73.9362 260.735 74.8954C262.534 75.3837 264.001 75.9069 265.503 76.1337C266.254 76.2558 266.709 75.5581 266.412 74.285ZM120.726 69.4888C120.342 68.2331 119.434 68.4773 118.683 68.5645C117.268 68.7389 117.058 68.9307 116.325 70.4132C117.809 70.0992 119.224 69.8027 120.726 69.4888ZM182.364 68.0587C182.958 67.7971 183.587 67.5878 184.128 67.2564C184.338 67.1343 184.495 66.6285 184.408 66.4193C184.321 66.1925 183.901 66.0007 183.622 65.9832C182.033 65.9309 181.736 66.3844 182.364 68.0587ZM197.35 25.7652C196.984 26.2186 196.512 26.5849 196.407 27.0209C196.355 27.2302 196.966 27.8057 197.315 27.8406C197.822 27.8929 198.381 27.6313 198.87 27.4046C198.957 27.3697 198.887 26.6895 198.695 26.5151C198.381 26.2186 197.927 26.0791 197.35 25.7652ZM88.4313 71.5468C87.8898 69.9772 87.3309 69.5062 86.1781 69.7678C85.8987 69.8376 85.5668 70.1864 85.5144 70.448C85.462 70.6922 85.6541 71.1457 85.8812 71.2678C86.6672 71.7387 87.5056 72.1747 88.4313 71.5468ZM241.872 69.7155C242.466 70.9538 242.693 71.4247 242.99 72.0526C243.95 71.7212 244.754 71.4422 246.168 70.9364C244.614 70.5004 243.653 70.2213 241.872 69.7155ZM281.38 77.1627C282.096 77.6685 282.515 78.0347 283.005 78.2789C283.371 78.4882 283.808 78.5579 284.262 78.6975C284.576 78.1742 284.804 77.808 285.153 77.2499C283.895 76.8836 282.882 76.6046 281.38 77.1627ZM239.723 72.4188C239.95 72.1398 240.212 71.8084 240.474 71.477C240.177 71.3724 239.863 71.1631 239.601 71.2154C238.728 71.3898 238.029 71.3201 237.592 70.4132C237.575 70.3608 237.138 70.4132 237.051 70.5178C236.929 70.6748 236.859 71.0236 236.964 71.1457C237.61 71.9828 238.466 72.4712 239.723 72.4188ZM164.531 40.7641C162.61 40.5723 161.387 40.4502 160.182 40.8339C160.025 40.8862 159.868 41.2001 159.885 41.3745C159.903 41.5315 160.13 41.6885 160.305 41.8106C160.374 41.8629 160.532 41.8629 160.636 41.8454C161.684 41.5315 162.767 41.235 164.531 40.7641ZM164.933 67.4134C165.702 66.7506 166.295 66.1228 166.121 64.9891C165.649 64.9891 165.23 64.9891 164.531 64.9891C164.671 65.4775 164.793 65.8786 164.863 66.2797C164.933 66.6111 164.916 66.9774 164.933 67.4134ZM130.804 35.4622C131.573 36.5435 132.376 36.3342 133.145 36.1947C133.284 36.1772 133.442 35.8284 133.424 35.654C133.407 35.497 133.127 35.2878 132.953 35.2878C132.306 35.2878 131.66 35.3924 130.804 35.4622ZM229.348 40.799C230.327 41.2524 231.305 41.7059 232.702 42.3512C231.986 40.2583 230.379 41.0606 229.348 40.799ZM108.063 70.448C109.041 70.5178 109.688 70.6225 110.334 70.5876C111.207 70.5352 111.329 70.2388 111.434 68.268C110.893 68.8086 110.596 69.2621 110.159 69.5237C109.635 69.8725 108.989 70.0643 108.063 70.448ZM212.598 71.3724C212.773 71.2154 212.895 71.1457 212.93 71.0585C212.948 70.9887 212.86 70.8317 212.79 70.7969C211.725 70.4306 210.66 69.9771 209.559 69.733C209.018 69.6109 208.861 70.1341 209.105 70.9015C210.24 71.041 211.463 71.2154 212.598 71.3724ZM150.838 43.2058C152.095 43.3453 152.951 43.5895 153.772 43.0837C153.912 42.9965 154.034 42.7 154.017 42.5431C153.999 42.3686 153.79 42.1245 153.633 42.0896C152.689 41.828 151.903 42.0896 150.838 43.2058ZM133.372 49.7111C134.228 50.1123 134.525 50.3739 134.821 50.3565C135.188 50.339 135.572 50.1472 135.904 49.9553C135.992 49.903 135.974 49.4321 135.869 49.3623C135.555 49.1356 135.153 48.8566 134.804 48.874C134.455 48.8914 134.123 49.2577 133.372 49.7111ZM137.668 35.9505C137.197 35.6191 136.865 35.2354 136.708 35.3052C136.341 35.4447 135.869 35.7587 135.8 36.09C135.677 36.5958 136.149 36.9621 136.638 36.8225C136.987 36.7179 137.249 36.3168 137.668 35.9505ZM208.389 42.5431C208.424 42.3861 208.459 42.2291 208.494 42.0547C208.057 41.7408 207.673 41.3571 207.184 41.1304C207.044 41.0606 206.555 41.3571 206.468 41.5838C206.398 41.7757 206.607 42.264 206.8 42.3163C207.306 42.4733 207.848 42.4733 208.389 42.5431ZM204.215 68.7737C204.075 68.8784 203.918 68.983 203.778 69.0877C204.075 69.6632 204.25 70.3434 204.686 70.7794C205.193 71.3026 205.682 71.0061 205.909 70.2039C205.367 69.7504 204.791 69.2621 204.215 68.7737ZM246.168 46.5893C243.88 45.9091 243.88 45.9091 243.182 46.5893C244.125 46.5893 244.963 46.5893 246.168 46.5893ZM77.7769 49.3623C76.2923 49.2054 75.5587 49.0833 74.8077 49.0833C74.5806 49.0833 74.3535 49.4495 74.1265 49.6588C74.3535 49.8332 74.5981 50.1995 74.7902 50.1646C75.5587 50.0251 76.3272 49.7635 77.7769 49.3623ZM96.2561 68.0238C96.5181 67.8843 96.9547 69.3667 98.1774 68.5993C97.3739 67.8145 96.4832 68.0063 96.2561 68.0238ZM227.654 67.5355C227.637 67.2913 227.619 67.0471 227.602 66.8029C227.078 66.7681 226.554 66.6809 226.047 66.7157C225.925 66.7157 225.715 67.0297 225.698 67.2041C225.681 67.3436 225.908 67.6401 226.03 67.6401C226.571 67.6401 227.113 67.5703 227.654 67.5355ZM63.0704 61.8847C62.232 61.9196 61.7779 61.8498 61.4111 62.0068C61.184 62.094 61.0967 62.5126 60.957 62.7742C61.3587 62.809 61.7779 62.9137 62.1447 62.8265C62.3717 62.7742 62.5464 62.4254 63.0704 61.8847ZM88.4836 58.6059C88.9727 60.4894 90.0207 60.3151 91.0162 60.193C91.156 60.1755 91.2608 59.9139 91.4704 59.6523C90.6145 59.3558 89.7936 59.0593 88.4836 58.6059ZM15.213 67.0471C14.1301 66.1925 14.1301 66.1925 12.6106 67.7447C13.6935 67.4483 14.3921 67.2564 15.213 67.0471ZM256.002 73.6048C256.072 73.9013 256.072 74.0234 256.124 74.1106C256.473 74.6163 256.962 74.8256 257.556 74.6164C257.713 74.564 257.783 74.3024 257.888 74.1455C257.434 73.9187 256.98 73.692 256.508 73.4827C256.421 73.4653 256.299 73.535 256.002 73.6048ZM48.2416 52.6935C47.5429 51.8912 46.7395 51.8563 45.2723 52.3272C46.6522 52.5016 47.4381 52.6063 48.2416 52.6935ZM20.0162 55.0305C20.9769 54.9433 21.6406 54.3503 21.4135 53.8097C21.3262 53.6004 20.8022 53.3214 20.6799 53.3911C20.2433 53.6527 19.8765 54.0364 19.5272 54.4201C19.4923 54.455 19.8765 54.8561 20.0162 55.0305ZM122.298 21.8934C122.403 22.5561 122.455 22.87 122.49 23.1665C123.364 23.2014 124.167 23.2189 124.307 22.0155C123.713 21.9631 123.154 21.9457 122.298 21.8934ZM47.6303 65.181C46.722 63.7508 46.0234 63.6636 44.7309 63.995C45.7614 64.4136 46.3552 64.6578 47.6303 65.181ZM240.16 47.845C239.95 48.4554 239.741 48.8391 239.741 49.2054C239.741 49.3798 240.195 49.5367 240.439 49.7111C240.632 49.3623 240.911 49.031 240.981 48.6473C240.998 48.4903 240.579 48.2461 240.16 47.845ZM233.121 72.506C234.187 72.9769 234.955 73.3083 235.951 73.7443C235.182 72.07 235.165 72.0875 233.121 72.506ZM81.9862 40.1711C81.9164 40.0839 81.8815 39.9618 81.7941 39.927C81.3225 39.6653 80.8684 39.2468 80.327 39.8049C80.2746 39.8572 80.2571 40.049 80.3095 40.1188C80.7112 40.7292 81.2876 40.4502 81.7941 40.3804C81.864 40.363 81.9164 40.2409 81.9862 40.1711ZM57.3415 25.521C57.4812 26.8988 57.4812 26.8988 58.5816 26.8291C58.4069 26.1838 58.2672 25.4861 57.3415 25.521ZM130.595 27.5441C130.385 27.7011 130.14 27.8232 130.14 27.9104C130.175 28.2069 130.298 28.5033 130.402 28.7824C130.56 28.6778 130.874 28.5731 130.857 28.4859C130.839 28.1894 130.699 27.8929 130.595 27.5441ZM168.287 30.9974C169.282 31.9392 169.282 31.9392 170.4 30.9974C169.632 30.9974 169.038 30.9974 168.287 30.9974ZM80.6064 49.903C80.9732 49.5367 81.1654 49.3449 81.3575 49.153C81.1304 48.9612 80.9034 48.6647 80.6588 48.6298C80.4143 48.5949 80.1348 48.8566 79.8729 48.9786C80.0825 49.2577 80.3095 49.5367 80.6064 49.903ZM166.051 53.4783C165.754 53.0423 165.649 52.6761 165.405 52.554C165.16 52.4319 164.811 52.5191 164.497 52.5016C164.619 52.7632 164.671 53.1469 164.881 53.2865C165.125 53.4609 165.51 53.4086 166.051 53.4783ZM192.041 55.1003C192.268 54.7515 192.407 54.5248 192.565 54.298C192.39 54.1934 192.198 53.9667 192.058 54.0015C191.796 54.0539 191.569 54.2631 191.325 54.4027C191.517 54.5945 191.726 54.7864 192.041 55.1003ZM92.4659 55.484C92.3088 55.8328 92.1341 56.1642 92.0119 56.5304C92.0119 56.5479 92.4834 56.8095 92.5184 56.7746C92.7629 56.4781 92.955 56.1467 93.1821 55.8154C93.0074 55.7107 92.8153 55.641 92.4659 55.484ZM257.451 55.6061C257.277 55.8851 257.067 56.1119 257.102 56.2165C257.172 56.3735 257.434 56.5479 257.609 56.5479C257.766 56.5479 257.923 56.3386 258.098 56.2165C257.888 56.0072 257.679 55.8154 257.451 55.6061ZM103.033 60.2976C102.911 60.0186 102.823 59.6697 102.754 59.6697C102.474 59.6697 102.177 59.7918 101.898 59.8616C102.002 60.1058 102.072 60.5069 102.23 60.5418C102.457 60.5941 102.754 60.4023 103.033 60.2976ZM126.246 68.0238C125.547 67.8494 125.233 67.675 124.971 67.7273C124.691 67.7971 124.464 68.0936 124.202 68.2854C124.429 68.4772 124.691 68.8435 124.883 68.8086C125.25 68.7214 125.582 68.4249 126.246 68.0238ZM269.521 75.8895C269.835 75.9244 270.132 76.029 270.394 75.9767C270.499 75.9593 270.551 75.6454 270.638 75.4535C270.359 75.3837 270.08 75.2616 269.8 75.2442C269.73 75.2442 269.643 75.593 269.521 75.8895ZM236.841 53.0598C236.614 52.554 236.562 52.118 236.352 51.9959C236.125 51.8912 235.759 52.0831 235.444 52.1528C235.549 52.4493 235.584 52.8504 235.793 53.0249C235.968 53.1644 236.352 53.0598 236.841 53.0598ZM129.04 35.0785C129.023 34.7297 129.04 34.3285 129.005 34.3285C128.726 34.2762 128.411 34.3111 128.114 34.3111C128.114 34.5204 128.062 34.8866 128.149 34.9215C128.411 35.0262 128.726 35.0262 129.04 35.0785ZM177.02 37.6946C177.002 37.5376 177.002 37.3806 176.985 37.2062C176.583 37.276 176.181 37.3283 175.78 37.3981C175.797 37.5027 175.797 37.5899 175.815 37.6946C176.216 37.6946 176.618 37.6946 177.02 37.6946ZM44.6785 60.3848C45.1501 60.5069 45.447 60.6638 45.6741 60.6115C45.8662 60.5592 46.0059 60.2627 46.1631 60.0709C45.9885 59.9837 45.7789 59.7744 45.6391 59.8093C45.3771 59.879 45.1326 60.1058 44.6785 60.3848ZM121.25 44.3918C121.442 44.322 121.652 44.2697 121.792 44.1476C121.844 44.1127 121.722 43.7465 121.669 43.7465C121.477 43.7465 121.268 43.8162 121.076 43.8685C121.128 44.0604 121.18 44.2348 121.25 44.3918ZM218.589 44.2871C218.659 44.1127 218.816 43.8511 218.764 43.7813C218.642 43.6418 218.397 43.6244 218.205 43.5546C218.135 43.729 217.978 43.9732 218.048 44.0429C218.17 44.1825 218.397 44.2174 218.589 44.2871ZM36.5567 44.4441C36.2074 44.4441 35.9105 44.4266 35.6135 44.4615C35.5961 44.4615 35.5611 44.8975 35.6135 44.9324C35.8057 45.0022 36.0502 45.0545 36.2423 44.9847C36.3646 44.9324 36.417 44.6883 36.5567 44.4441ZM173.736 49.0484C173.439 49.2054 173.265 49.31 173.072 49.4147C173.265 49.6414 173.422 49.903 173.649 50.06C173.719 50.1123 174.138 49.8158 174.12 49.7809C174.05 49.5193 173.893 49.2751 173.736 49.0484ZM265.731 51.6819C265.573 51.5773 265.399 51.3855 265.224 51.3855C265.102 51.3855 264.997 51.6471 264.875 51.7866C265.032 51.9087 265.207 52.1005 265.364 52.1005C265.486 52.1005 265.608 51.8215 265.731 51.6819ZM280.594 56.7223C280.42 56.9664 280.158 57.228 280.192 57.2804C280.35 57.5245 280.594 57.7164 280.839 57.8734C280.874 57.8908 281.24 57.5246 281.223 57.4897C281.048 57.2281 280.821 56.9839 280.594 56.7223ZM59.647 63.0881C59.2628 62.6695 59.0881 62.3207 58.8435 62.2684C58.5816 62.2161 58.2497 62.4254 57.9528 62.5126C58.1449 62.7567 58.3021 63.1055 58.5641 63.2102C58.7737 63.3323 59.123 63.1753 59.647 63.0881ZM151.449 64.6578C151.659 64.6752 151.868 64.6926 152.061 64.7101C152.165 64.7101 152.27 64.6926 152.358 64.6926C152.235 64.6403 152.13 64.5531 152.008 64.5531C151.834 64.5531 151.659 64.6229 151.449 64.6578ZM129.197 27.5092C128.813 27.143 128.621 26.8814 128.376 26.7767C128.237 26.707 127.992 26.8988 127.8 26.9686C127.905 27.2302 127.94 27.6488 128.114 27.736C128.324 27.8232 128.673 27.6313 129.197 27.5092ZM179.954 29.7068C179.814 29.4103 179.727 29.0789 179.64 29.0789C179.36 29.0615 179.063 29.1836 178.766 29.2359C178.854 29.4277 178.924 29.7242 179.046 29.7591C179.308 29.8114 179.605 29.7242 179.954 29.7068ZM201.874 29.6719C201.787 29.48 201.752 29.2184 201.612 29.1312C201.455 29.044 201.21 29.1312 201.001 29.1312C201.106 29.3754 201.158 29.6544 201.315 29.8463C201.35 29.9161 201.682 29.7417 201.874 29.6719ZM98.4394 71.041C99.173 71.2329 99.4524 71.3201 99.7493 71.355C99.8367 71.3724 99.924 71.2677 100.011 71.2329C99.9065 71.1108 99.8192 70.8841 99.7144 70.8666C99.4524 70.8492 99.173 70.9364 98.4394 71.041ZM172.286 32.5147C172.444 32.4101 172.618 32.3054 172.775 32.1833C172.723 32.0961 172.618 31.9392 172.601 31.9566C172.426 32.0438 172.269 32.1659 172.094 32.2705C172.164 32.3403 172.217 32.4275 172.286 32.5147ZM173.072 64.9019C173.265 64.8322 173.439 64.7624 173.631 64.6926C173.509 64.5357 173.404 64.2392 173.282 64.2392C173.072 64.2392 172.863 64.4136 172.636 64.5182C172.775 64.6403 172.933 64.7799 173.072 64.9019ZM141.878 26.0094C141.825 25.8175 141.843 25.5559 141.703 25.4687C141.598 25.3815 141.336 25.5036 141.144 25.521C141.214 25.7826 141.301 26.0442 141.371 26.3058C141.546 26.2012 141.721 26.114 141.878 26.0094ZM161.789 62.4602C161.667 62.5823 161.422 62.7218 161.44 62.8439C161.457 63.0183 161.649 63.1927 161.754 63.3497C161.877 63.2276 162.121 63.0881 162.104 62.966C162.086 62.7916 161.894 62.6347 161.789 62.4602ZM71.1398 62.6695C71 62.5474 70.8428 62.3207 70.738 62.3382C70.511 62.373 70.3014 62.5474 70.0743 62.6695C70.249 62.7567 70.4411 62.8963 70.6158 62.8963C70.7904 62.8963 70.9651 62.7567 71.1398 62.6695ZM158.768 61.7103C158.942 61.6231 159.117 61.5359 159.292 61.4487C159.187 61.3092 159.047 61.0301 158.977 61.0301C158.75 61.0824 158.523 61.2394 158.313 61.344C158.453 61.4836 158.61 61.5882 158.768 61.7103ZM302.619 57.4199C302.462 57.5071 302.305 57.5943 302.147 57.699C302.217 57.7862 302.287 57.8908 302.375 57.9431C302.462 57.9954 302.584 57.9606 302.689 57.978C302.654 57.7861 302.637 57.5943 302.619 57.4199ZM168.741 55.7282C168.653 55.763 168.479 55.8502 168.479 55.8502C168.549 56.0247 168.636 56.1991 168.723 56.3735C168.811 56.3386 168.898 56.2863 169.003 56.2514C168.915 56.077 168.828 55.9026 168.741 55.7282ZM151.903 54.8212C151.711 54.8387 151.519 54.8561 151.327 54.8736C151.397 54.9259 151.467 54.9956 151.554 55.0305C151.641 55.048 151.764 55.048 151.851 55.0131C151.886 54.9957 151.886 54.891 151.903 54.8212ZM265.573 53.6353C265.329 53.4085 265.207 53.1993 265.032 53.1818C264.84 53.1469 264.63 53.2865 264.421 53.3388C264.473 53.4958 264.543 53.7922 264.595 53.7922C264.91 53.7748 265.206 53.6876 265.573 53.6353ZM161.003 70.6224C160.846 70.5178 160.689 70.3957 160.514 70.3085C160.497 70.2911 160.305 70.4829 160.322 70.5352C160.392 70.7096 160.532 70.8492 160.636 71.0062C160.741 70.8841 160.864 70.7445 161.003 70.6224ZM269.468 52.7807C269.381 52.7284 269.259 52.6412 269.189 52.6586C269.084 52.6935 268.997 52.8156 268.892 52.8853C268.997 52.9028 269.119 52.9377 269.206 52.9202C269.311 52.9028 269.381 52.833 269.468 52.7807ZM103.609 52.1703C103.592 52.1354 103.592 52.0656 103.574 52.0656C103.487 52.0482 103.4 52.0656 103.295 52.0482C103.312 52.0831 103.312 52.1528 103.33 52.1528C103.417 52.1703 103.522 52.1703 103.609 52.1703ZM182.888 49.7983C182.784 49.903 182.679 50.0251 182.574 50.1297C182.661 50.182 182.766 50.2693 182.853 50.2518C183.046 50.2169 183.238 50.1297 183.43 50.06C183.238 49.9727 183.063 49.8855 182.888 49.7983ZM265.241 49.6588C265.172 49.746 265.102 49.8332 265.049 49.9204C265.137 49.9728 265.311 50.0948 265.311 50.0774C265.416 49.9553 265.486 49.7984 265.573 49.6588C265.451 49.6588 265.346 49.6588 265.241 49.6588ZM116.604 45.6126C116.796 45.5254 116.971 45.4382 117.163 45.351C117.041 45.194 116.901 44.8975 116.814 44.915C116.552 44.9673 116.325 45.1417 116.08 45.2638C116.255 45.3859 116.43 45.4905 116.604 45.6126ZM145.004 44.6883C144.847 44.5836 144.69 44.4441 144.515 44.3743C144.463 44.3569 144.253 44.5313 144.253 44.5487C144.341 44.7231 144.445 44.8975 144.55 45.0545C144.707 44.9324 144.865 44.8103 145.004 44.6883ZM167.239 42.2989C166.907 42.1942 166.627 42.0373 166.348 42.0198C166.191 42.0024 165.999 42.2117 165.824 42.3163C166.138 42.4733 166.435 42.6826 166.767 42.7872C166.837 42.8047 167.029 42.5082 167.239 42.2989ZM76.4844 38.4794C76.4145 38.4096 76.3447 38.3573 76.2748 38.2875C76.2049 38.4271 76.1525 38.5666 76.0827 38.7061C76.1875 38.7236 76.2923 38.7759 76.3621 38.741C76.4145 38.6887 76.432 38.5666 76.4844 38.4794ZM111.155 37.0842C111.312 36.9795 111.487 36.8749 111.644 36.7876C111.469 36.683 111.277 36.4912 111.137 36.526C110.928 36.5784 110.753 36.7877 110.561 36.9446C110.771 36.9795 110.963 37.0318 111.155 37.0842ZM227.41 30.1602C227.41 30.0556 227.392 29.9684 227.392 29.8637C227.252 29.9335 227.095 29.9858 226.956 30.0556C227.008 30.1253 227.06 30.2474 227.13 30.2649C227.218 30.2649 227.322 30.1951 227.41 30.1602ZM182.242 27.2476C182.085 27.3697 181.928 27.5092 181.771 27.6313C181.858 27.6836 181.945 27.8057 182.033 27.8057C182.225 27.7883 182.417 27.7011 182.626 27.6488C182.487 27.5092 182.364 27.3872 182.242 27.2476ZM148.008 26.7767C147.816 26.829 147.607 26.8814 147.415 26.9511C147.554 27.0558 147.711 27.2302 147.851 27.2302C147.991 27.2302 148.148 27.0383 148.288 26.9337C148.201 26.8814 148.113 26.829 148.008 26.7767ZM78.8249 70.9713C78.7376 70.9015 78.6328 70.7794 78.5629 70.7969C78.1961 70.8841 78.1961 71.041 78.5629 71.1457C78.6328 71.1457 78.7376 71.0236 78.8249 70.9713ZM91.5402 70.3957C91.5577 70.5004 91.5577 70.605 91.5752 70.7096C91.7149 70.6573 91.8546 70.6225 91.9769 70.5701C91.9245 70.4829 91.8896 70.3434 91.8197 70.3085C91.7673 70.2736 91.645 70.3608 91.5402 70.3957ZM217.786 69.9423C217.786 69.8376 217.768 69.733 217.768 69.6109C217.611 69.6632 217.471 69.7155 217.314 69.7504C217.367 69.8376 217.419 69.9597 217.506 70.012C217.576 70.0469 217.698 69.9597 217.786 69.9423ZM214.275 68.8086L214.013 68.8784L214.205 69.0005L214.275 68.8086ZM4.64598 69.1574C4.61105 69.2446 4.5412 69.3493 4.57613 69.4016C4.61106 69.4714 4.73334 69.4888 4.8032 69.5237C4.83813 69.4365 4.90798 69.3493 4.87305 69.297C4.83812 69.2272 4.73331 69.2098 4.64598 69.1574ZM98.2647 63.8555C98.1774 63.8904 98.09 63.9253 98.0027 63.9601C98.125 64.0473 98.2472 64.152 98.352 64.2392C98.4044 64.1694 98.5092 64.0648 98.4918 64.0124C98.4568 63.9427 98.3346 63.9078 98.2647 63.8555ZM78.1262 67.5006C78.1437 67.5878 78.1437 67.6924 78.1612 67.7796C78.3184 67.7273 78.4755 67.6924 78.6327 67.6401C78.5629 67.5703 78.5105 67.4483 78.4406 67.4308C78.3358 67.4134 78.231 67.4831 78.1262 67.5006ZM63.28 67.9366L63.542 67.9889L63.4372 67.7447L63.28 67.9366ZM129.355 50.4611L129.564 50.3216L129.32 50.182L129.355 50.4611ZM186.556 67.3262L186.382 67.0994L186.277 67.3262H186.556ZM16.6976 64.5182C16.6278 64.4485 16.5579 64.3787 16.4706 64.3264C16.3833 64.4834 16.2785 64.6229 16.2261 64.7798C16.2086 64.8147 16.3658 64.9194 16.4357 64.9717C16.5055 64.8147 16.6103 64.6578 16.6976 64.5182ZM275.25 77.7731L275.11 77.5813L275.022 77.7731H275.25ZM5.51929 65.3554C5.41449 65.3728 5.23985 65.3903 5.23985 65.4077C5.22239 65.5821 5.23985 65.774 5.23985 65.9484C5.32719 65.9135 5.50185 65.9135 5.50185 65.8612C5.53678 65.7042 5.51929 65.5298 5.51929 65.3554ZM118.176 37.5899C118.281 37.5899 118.403 37.5899 118.508 37.5899C118.403 37.4853 118.316 37.3981 118.211 37.2934C118.194 37.3981 118.194 37.4853 118.176 37.5899ZM91.8721 45.6475C91.8372 45.5603 91.8197 45.4382 91.7499 45.4033C91.68 45.3684 91.5752 45.4382 91.4879 45.4731C91.5577 45.5952 91.6276 45.7172 91.68 45.8568C91.7498 45.7696 91.8197 45.6998 91.8721 45.6475ZM269.922 44.3394L269.957 44.1301L269.765 44.2173L269.922 44.3394ZM129.145 43.014C129.058 42.9791 128.918 42.8919 128.9 42.9093C128.831 42.9965 128.796 43.1012 128.743 43.2058C128.848 43.2058 128.953 43.2232 129.04 43.2058C129.075 43.1884 129.11 43.0837 129.145 43.014ZM136.009 42.7698C136.184 42.6477 136.358 42.5431 136.533 42.421C136.376 42.2989 136.219 42.0722 136.044 42.0722C135.887 42.0722 135.712 42.2814 135.538 42.3861C135.695 42.5082 135.852 42.6303 136.009 42.7698ZM192.966 40.9734C192.914 41.0432 192.809 41.1129 192.809 41.1827C192.809 41.2699 192.879 41.3571 192.931 41.4443C193.036 41.3222 193.124 41.2176 193.228 41.0955C193.141 41.0606 193.054 41.0083 192.966 40.9734ZM82.7198 61.065C82.6325 60.8732 82.5801 60.629 82.4404 60.5243C82.3356 60.4546 82.0911 60.6115 81.9164 60.6813C82.0037 60.8731 82.0212 61.1522 82.1609 61.2219C82.2832 61.2917 82.5451 61.1348 82.7198 61.065ZM167.833 40.8339C167.78 40.7467 167.745 40.6246 167.658 40.5897C167.588 40.5548 167.466 40.6246 167.361 40.642C167.448 40.7641 167.536 40.9036 167.623 41.0257C167.693 40.956 167.763 40.8862 167.833 40.8339ZM186.347 52.9725C186.434 52.9377 186.521 52.8853 186.609 52.8504C186.539 52.7981 186.434 52.6586 186.382 52.676C186.259 52.7109 186.155 52.833 186.05 52.9028C186.155 52.9202 186.242 52.9551 186.347 52.9725ZM290.218 60.1755C290.131 60.2278 290.043 60.2976 289.974 60.3499C290.113 60.4546 290.236 60.5592 290.393 60.629C290.445 60.6464 290.55 60.5243 290.637 60.472C290.497 60.3848 290.358 60.2802 290.218 60.1755ZM235.671 39.2468C235.619 39.3863 235.566 39.5433 235.549 39.6828C235.549 39.7177 235.758 39.8049 235.811 39.7874C235.951 39.7002 236.055 39.5607 236.178 39.4561C236.021 39.3863 235.846 39.3165 235.671 39.2468ZM70.8778 39.0375C70.9127 39.1247 70.9476 39.2119 70.9825 39.2991C71.1397 39.2293 71.297 39.1596 71.4367 39.0898C71.4541 39.0898 71.3843 38.9329 71.3494 38.8456C71.1922 38.9154 71.035 38.9677 70.8778 39.0375ZM123.294 35.9156C123.206 35.9679 123.119 36.0203 123.032 36.0726C123.206 36.0726 123.364 36.0726 123.538 36.0726C123.468 36.0377 123.381 35.9679 123.294 35.9156ZM175.291 31.8345L175.326 31.5729L175.081 31.6427L175.291 31.8345ZM32.4696 53.3388C32.5569 53.3911 32.6443 53.4434 32.7316 53.4958C32.6792 53.3562 32.6268 53.2167 32.5919 53.0772C32.5395 53.1644 32.5045 53.2516 32.4696 53.3388ZM194.311 28.3289L194.521 28.1545L194.294 28.0673L194.311 28.3289ZM177.229 27.6313C177.125 27.6313 177.037 27.6139 176.932 27.6139C177.02 27.6836 177.107 27.7709 177.194 27.8406C177.212 27.7709 177.212 27.7011 177.229 27.6313ZM174.033 27.6488C173.841 27.5964 173.649 27.5267 173.457 27.4918C173.439 27.4918 173.387 27.6662 173.334 27.7534C173.526 27.8057 173.719 27.8755 173.911 27.9104C173.946 27.9104 173.998 27.7534 174.033 27.6488ZM105.915 25.0676C105.81 25.2245 105.67 25.3815 105.601 25.5559C105.583 25.6082 105.758 25.8175 105.775 25.8001C105.967 25.7303 106.124 25.6257 106.299 25.521C106.177 25.3815 106.037 25.2245 105.915 25.0676ZM152.113 22.6607C152.008 22.6433 151.903 22.6259 151.799 22.6433C151.764 22.6433 151.781 22.8003 151.764 22.8875C151.868 22.8875 151.973 22.9224 152.078 22.8875C152.113 22.8875 152.095 22.7479 152.113 22.6607ZM21.169 74.3373C21.0817 74.3547 20.9943 74.3896 20.907 74.4071C21.0118 74.4594 21.1341 74.5117 21.2389 74.564C21.2039 74.4768 21.1865 74.4071 21.169 74.3373ZM83.8551 70.8666C83.7678 70.8317 83.6805 70.8143 83.5931 70.7794C83.5757 70.8492 83.5058 70.9713 83.5408 71.0062C83.5932 71.0585 83.6979 71.0759 83.7853 71.0934C83.8027 71.0236 83.8202 70.9538 83.8551 70.8666ZM148.707 64.6926L148.882 64.8147L148.917 64.6229L148.707 64.6926ZM152.13 50.7227L152.358 50.8622L152.392 50.6529L152.13 50.7227ZM221.611 56.3909L221.401 56.2514L221.349 56.4781L221.611 56.3909ZM311.405 57.9431C311.37 57.8734 311.317 57.8036 311.282 57.7338C311.23 57.7861 311.143 57.8559 311.143 57.9257C311.143 57.9954 311.212 58.0652 311.265 58.135C311.3 58.0652 311.352 58.0129 311.405 57.9431ZM112.342 50.0425C112.43 50.0774 112.517 50.0948 112.622 50.1297C112.552 50.0251 112.5 49.9204 112.43 49.8158C112.412 49.903 112.377 49.9728 112.342 50.0425ZM237.61 49.2577L237.383 49.3623L237.61 49.467V49.2577ZM117.652 54.9259C117.617 55.0131 117.582 55.1003 117.547 55.1701C117.635 55.2049 117.74 55.2747 117.774 55.2398C117.844 55.1875 117.844 55.0829 117.879 54.9957C117.809 54.9782 117.74 54.9608 117.652 54.9259ZM252.369 43.2058L252.386 42.9791L252.159 43.0837L252.369 43.2058ZM100.029 43.136L100.046 42.9791L99.8367 43.0488L100.029 43.136ZM73.585 41.1129L73.7073 41.3745L73.8295 41.1129H73.585ZM296.366 60.3848L296.157 60.472L296.366 60.5592V60.3848ZM138.419 52.9028L138.629 52.8156L138.419 52.7284V52.9028ZM159.379 32.4624L159.134 32.567L159.379 32.6717V32.4624ZM20.2608 61.3615C20.3481 61.3092 20.4354 61.2743 20.5402 61.2219C20.3655 61.2045 20.1909 61.1871 20.0337 61.1696C20.1036 61.2394 20.1734 61.3092 20.2608 61.3615ZM182.12 58.7977L182.015 58.5884L181.91 58.7977H182.12ZM204.651 52.2226L204.896 52.118L204.651 52.0133V52.2226ZM155.589 27.5092C155.536 27.422 155.501 27.3348 155.449 27.2476C155.379 27.3174 155.274 27.3871 155.257 27.4744C155.239 27.5616 155.344 27.6488 155.379 27.736C155.449 27.6488 155.519 27.579 155.589 27.5092ZM128.062 20.7423L127.852 20.6202L127.818 20.812L128.062 20.7423ZM129.564 57.3676C129.547 57.4548 129.494 57.542 129.494 57.6292C129.494 57.6641 129.634 57.6815 129.704 57.699C129.721 57.6117 129.774 57.5245 129.756 57.4548C129.756 57.4199 129.634 57.4025 129.564 57.3676ZM131.049 59.1291C131.031 59.2686 131.014 59.4256 130.979 59.5651C131.031 59.4953 131.136 59.443 131.136 59.3732C131.154 59.286 131.084 59.1988 131.049 59.1291Z" fill="#3D576F" fill-opacity="0.31"/>
<path d="M142.646 12.4755C141.79 12.8766 140.865 13.33 140.096 13.6789C138.734 13.1382 137.476 12.8417 136.446 12.179C134.612 11.0104 132.9 11.0802 131.293 12.3534C129.32 13.923 127.084 13.2428 124.936 13.2603C124.586 13.2603 124.254 12.7022 123.835 12.3534C121.023 14.0451 117.792 14.0974 114.648 14.5335C113.46 14.7079 113.216 13.5045 112.43 13.0684C111.207 13.33 109.985 13.4172 108.867 14.2195C107.207 15.4229 106.456 15.266 104.832 14.0277C104.465 13.7486 104.116 13.4696 103.732 13.2254C103.662 13.1731 103.505 13.2428 103.19 13.2603C102.946 13.7486 102.631 14.3242 102.334 14.9171C101.199 15.3183 100.046 15.2311 98.9284 14.8474C97.5661 14.3765 96.2386 14.4986 94.8239 14.6381C92.5183 14.8823 90.1953 14.8823 87.8723 14.8648C86.1257 14.8648 84.414 14.9172 82.6849 15.3008C81.34 15.5973 79.9077 15.8938 78.5803 15.702C77.2703 15.5101 76.0477 15.7892 74.8775 15.981C73.4278 16.2252 72.1178 15.8415 70.7555 15.7892C69.9695 15.7543 69.1486 15.981 68.3975 16.2252C67.4369 16.5391 66.6334 16.4345 65.7427 15.9636C64.8519 15.4752 63.8389 15.1613 62.8433 14.9171C61.7255 14.6381 60.7299 14.7951 60.5902 16.2426C58.8261 15.4404 57.2541 14.7253 55.5424 13.9579C54.9311 12.2487 55.9092 10.6616 56.3633 9.07453C56.9921 6.87701 57.3589 6.66774 59.6121 7.08632C60.8522 7.31305 61.8827 6.89447 63.018 6.75494C64.2231 6.59798 65.568 6.9991 66.2317 5.48177C66.3365 5.25504 66.8256 5.09808 67.14 5.09808C70.9651 5.11552 74.6679 3.80748 78.5279 4.13885C79.4361 4.22605 80.3619 3.87724 81.2876 3.80747C82.9119 3.68539 84.5538 3.44121 86.1607 3.58074C87.785 3.70282 89.3744 4.08653 90.8416 3.07498C95.1033 3.17962 99.3127 1.36578 103.609 2.79591C104.5 3.0924 105.426 2.90056 106.229 2.23782C107.103 1.50531 108.168 1.43554 109.216 1.74947C110.491 2.11573 111.731 2.11573 112.989 1.74947C113.321 1.66227 113.705 1.52276 114.019 1.59252C117.303 2.34247 120.447 1.01698 123.678 0.929772C125.547 0.87745 127.381 0.73793 129.197 1.34835C130.263 1.69716 131.381 2.20293 132.516 1.31346C132.778 1.10417 133.389 1.36579 133.843 1.36579C136.009 1.33091 138.192 1.27859 140.358 1.24371C141.581 -0.465469 143.362 0.807696 144.847 0.458884C146.279 0.110072 147.834 0.301914 149.336 0.214711C152.235 0.0751861 155.117 -0.308512 158.156 0.493757C159.292 2.39478 159.658 4.4179 158.209 6.49333C158.069 6.68518 157.929 6.87703 157.842 7.08632C157.545 7.7665 157.947 8.95246 156.829 9.03966C156.095 9.09198 155.309 8.6734 154.558 8.46411C154.349 8.41179 154.122 8.35947 153.79 8.2897C153.685 8.55131 153.563 8.84781 153.44 9.12686C153.353 9.31871 153.248 9.49311 153.143 9.66752C150.96 8.6734 150.978 8.70829 148.34 9.47568C147.607 9.68496 146.751 9.58032 145.965 9.56288C145.284 9.54544 144.62 9.45823 143.869 9.38847C143.432 10.4523 143.065 11.4116 142.646 12.4755ZM133.791 9.63265C133.791 9.528 133.791 9.40591 133.791 9.30127C133.389 9.31871 133.005 9.3536 132.603 9.37104C132.603 9.45824 132.603 9.54545 132.621 9.61521C133.005 9.63265 133.389 9.63265 133.791 9.63265ZM119.154 10.8884C119.084 11.0628 118.927 11.2546 118.962 11.4116C118.997 11.5162 119.277 11.5686 119.434 11.6383C119.504 11.4639 119.678 11.2546 119.643 11.1325C119.608 11.0104 119.329 10.9756 119.154 10.8884ZM105.443 9.66752L105.478 9.45824L105.234 9.52801L105.443 9.66752Z" fill="#3D576F" fill-opacity="0.31"/>
<path d="M293.257 79.9706C293.589 79.6567 293.973 79.3777 294.27 79.0288C295.179 78.0173 296.209 77.9126 297.502 78.5579C297.379 79.0637 297.24 79.5869 297.065 80.302C298.183 80.738 299.318 81.1915 300.488 81.6449C300.488 82.7263 299.685 83.1797 298.899 82.9355C297.274 82.4297 295.702 81.6798 294.148 80.9473C293.781 80.7729 293.607 80.2322 293.327 79.866C293.327 79.8834 293.257 79.9706 293.257 79.9706Z" fill="#3D576F" fill-opacity="0.31"/>
<path d="M164.427 13.9754C163.012 14.0452 161.772 14.0626 160.794 12.9464C161.125 11.8476 161.353 10.9756 162.837 11.0279C163.78 11.0628 164.758 10.4524 165.737 10.2431C165.999 10.1908 166.558 10.4175 166.592 10.6094C166.68 10.993 166.662 11.5686 166.435 11.8476C166.191 12.1441 165.649 12.2488 165.23 12.3534C164.409 12.5278 164.758 13.2603 164.427 13.9754Z" fill="#3D576F" fill-opacity="0.31"/>
<path d="M146.384 11.7954C146.821 11.9 147.24 12.0047 147.659 12.1093C147.991 12.1965 148.323 12.2837 148.829 12.4058C149.056 12.1093 149.318 11.7779 149.598 11.464C149.807 11.2198 150.069 11.028 150.489 10.6269C151.17 11.7605 151.781 12.772 152.602 14.1324C151.834 14.0801 151.397 14.1499 151.03 14.0103C149.86 13.5743 148.725 13.1383 147.397 13.2953C146.611 13.3999 146.244 12.7372 146.384 11.7954Z" fill="#3D576F" fill-opacity="0.31"/>
<path d="M302.06 82.4298C302.41 81.3136 302.602 80.7032 302.829 79.9707C303.981 80.7555 304.942 81.4357 306.077 82.2206C304.855 82.7089 303.685 82.3601 302.06 82.4298Z" fill="#3D576F" fill-opacity="0.31"/>
<path d="M169.701 11.4989C169.142 11.8128 168.706 12.214 168.496 12.1268C168.199 11.9872 167.867 11.464 167.902 11.1501C167.937 10.8711 168.479 10.4176 168.741 10.4525C169.038 10.5048 169.265 11.0106 169.701 11.4989Z" fill="#3D576F" fill-opacity="0.31"/>
<path d="M179.692 10.8709C180.076 11.4813 180.373 11.865 180.53 12.2836C180.565 12.3708 180.059 12.8068 179.814 12.8068C179.255 12.8068 178.627 12.5975 178.662 11.8999C178.679 11.6034 179.186 11.3418 179.692 10.8709Z" fill="#3D576F" fill-opacity="0.31"/>
<path d="M190.958 12.0919C190.416 12.4407 190.189 12.7198 189.945 12.7372C188.879 12.7895 188.879 12.7546 187.237 11.9349C187.395 11.8129 187.569 11.5861 187.727 11.6036C188.687 11.7256 189.648 11.8826 190.958 12.0919Z" fill="#3D576F" fill-opacity="0.31"/>
<path d="M146.856 34.9565C147.799 34.5728 148.742 34.1716 149.703 33.8054C150 33.7007 150.017 33.7531 151.1 34.939C149.545 34.9565 148.218 34.9565 146.856 34.9565Z" fill="#3D576F" fill-opacity="0.31"/>
<path d="M308.662 80.0404C307.981 80.1277 307.283 80.2149 306.252 80.3544C307.195 79.5172 307.894 79.5347 308.662 80.0404Z" fill="#3D576F" fill-opacity="0.31"/>
<path d="M313.431 82.3079C313.029 82.0811 312.75 81.9241 312.453 81.7672C312.645 81.5579 312.819 81.2091 313.029 81.1742C313.326 81.1393 313.64 81.366 313.955 81.4707C313.797 81.7323 313.64 81.9765 313.431 82.3079Z" fill="#3D576F" fill-opacity="0.31"/>
<path d="M301.292 80.0405C300.925 79.5521 300.698 79.2382 300.453 78.9243C300.698 78.7499 300.942 78.4359 301.187 78.4359C301.431 78.4534 301.816 78.7499 301.851 78.9766C301.886 79.2208 301.589 79.4998 301.292 80.0405Z" fill="#3D576F" fill-opacity="0.31"/>
<path d="M288.192 74.2154C287.354 74.5468 287.057 74.756 286.795 74.7386C286.323 74.7212 285.956 74.4247 286.183 73.9189C286.271 73.7445 286.742 73.6399 287.004 73.6747C287.319 73.6922 287.598 73.9189 288.192 74.2154Z" fill="#3D576F" fill-opacity="0.31"/>
<path d="M171.483 10.557C171.71 11.0279 171.972 11.3244 171.902 11.5337C171.85 11.7256 171.465 11.8651 171.186 11.9174C171.099 11.9348 170.819 11.5511 170.854 11.4291C170.942 11.15 171.186 10.9582 171.483 10.557Z" fill="#3D576F" fill-opacity="0.31"/>
<path d="M157.58 12.3709C157.72 12.2314 157.859 12.1093 157.999 11.9698C158.086 12.1442 158.191 12.3012 158.244 12.493C158.261 12.5454 158.069 12.7372 158.051 12.7198C157.894 12.6325 157.737 12.493 157.58 12.3709Z" fill="#3D576F" fill-opacity="0.31"/>
<path d="M174.854 14.0627C174.924 14.2022 174.994 14.3243 175.046 14.4638C174.959 14.4813 174.854 14.5161 174.767 14.4987C174.679 14.4813 174.592 14.4115 174.522 14.3592C174.644 14.272 174.749 14.1673 174.854 14.0627Z" fill="#3D576F" fill-opacity="0.31"/>
<path d="M132.987 14.0626C132.795 14.0451 132.551 14.0974 132.446 14.0102C132.341 13.923 132.376 13.6614 132.341 13.487C132.516 13.5045 132.76 13.4521 132.865 13.5568C132.987 13.6265 132.953 13.8707 132.987 14.0626Z" fill="#3D576F" fill-opacity="0.31"/>
<path d="M184.024 12.9464L184.303 13.0336L184.076 13.1731L184.024 12.9464Z" fill="#3D576F" fill-opacity="0.31"/>
<path d="M174.592 10.9234C174.749 10.9931 174.871 11.0106 174.906 11.0803C174.941 11.1327 174.854 11.2547 174.819 11.3419C174.749 11.2024 174.679 11.0803 174.592 10.9234Z" fill="#3D576F" fill-opacity="0.31"/>
</svg>