<svg width="1440" height="651" viewBox="0 0 1440 651" fill="none" xmlns="http://www.w3.org/2000/svg">
<g>
<path fill-rule="evenodd" clip-rule="evenodd" d="M1385.9 42.2698C1385.59 42.0374 1385.27 41.8053 1384.95 41.5733L1375.5 165.838L1231.61 154.889L1242.56 11.001L1352.9 19.3974C1352.32 19.0184 1351.74 18.64 1351.16 18.2621L1242.64 10.0039L1246.41 -39.6324C1246.09 -39.7834 1245.77 -39.9344 1245.44 -40.0852L1241.64 9.92804L1097.75 -1.02081L1104.79 -93.5481C1104.46 -93.647 1104.14 -93.7458 1103.81 -93.8445L1096.75 -1.09668L952.865 -12.0456L961.652 -127.513C961.322 -127.571 960.992 -127.629 960.662 -127.687L951.868 -12.1215L807.98 -23.0704L817.249 -144.882C816.916 -144.904 816.584 -144.926 816.251 -144.948L806.983 -23.1462L663.095 -34.0951L671.693 -147.081C671.357 -147.069 671.022 -147.056 670.687 -147.044L662.098 -34.171L518.211 -45.1198L524.974 -134.007C524.636 -133.959 524.298 -133.91 523.96 -133.861L517.214 -45.1957L373.326 -56.1445L376.948 -103.754C376.607 -103.662 376.266 -103.571 375.924 -103.479L372.328 -56.2205L258.429 -64.8874C257.717 -64.6079 257.005 -64.3277 256.294 -64.047L372.253 -55.2233L361.304 88.6644L217.416 77.7156L227.293 -52.0806C226.947 -51.9316 226.601 -51.7825 226.256 -51.6331L216.419 77.6396L72.5309 66.6908L75.2113 31.4642C74.858 31.7101 74.5049 31.9562 74.1523 32.2025L71.5337 66.615L32.4835 63.6435C32.1091 63.9491 31.7353 64.2549 31.362 64.561L71.4579 67.6121L60.509 211.5L-83.454 200.546L-82.7382 191.119C-83.1205 191.728 -83.5011 192.338 -83.88 192.948L-84.4512 200.47L-88.2687 200.179C-88.4584 200.499 -88.6476 200.819 -88.8364 201.139L-84.5269 201.467L-95.4541 345.356L-137.707 342.141C-137.746 342.472 -137.785 342.804 -137.823 343.135L-95.5298 346.353L-106.457 490.243L-121.979 489.062C-121.863 489.405 -121.746 489.748 -121.629 490.091L-106.533 491.24L-108.889 522.261C-108.604 522.892 -108.318 523.523 -108.029 524.153L-105.536 491.316L38.3836 502.267L34.0549 559.155L35.0525 559.225L39.3808 502.343L183.269 513.292L179.008 569.291L180.005 569.361L184.266 513.368L328.154 524.317L323.96 579.427L324.958 579.497L329.151 524.393L473.039 535.341L468.913 589.563L469.91 589.633L474.036 535.417L617.923 546.366L613.865 599.699L614.863 599.769L618.921 546.442L762.808 557.391L758.817 609.835L759.815 609.905L763.805 557.467L907.693 568.416L903.771 619.971L904.768 620.041L908.691 568.491L1052.58 579.44L1048.72 630.108L1049.72 630.177L1053.58 579.516L1197.46 590.465L1193.68 640.244L1194.67 640.313L1198.46 590.541L1342.35 601.49L1338.63 650.38L1339.63 650.449L1343.35 601.566L1470.91 611.273L1470.99 610.276L1343.42 600.569L1354.37 456.68L1470.91 465.549L1470.99 464.552L1354.45 455.683L1365.4 311.796L1470.91 319.825L1470.99 318.828L1365.47 310.799L1376.42 166.911L1470.91 174.101L1470.99 173.104L1376.5 165.913L1385.9 42.2698ZM1487.13 627.094C1486.76 627.52 1486.39 627.946 1486.03 628.371L1520.28 178.164C1520.59 178.609 1520.89 179.054 1521.19 179.499L1487.13 627.094ZM1375.42 166.835L1231.54 155.886L1220.59 299.774L1364.47 310.723L1375.42 166.835ZM1364.4 311.72L1220.51 300.771L1209.56 444.659L1353.45 455.608L1364.4 311.72ZM1353.37 456.605L1209.49 445.656L1198.54 589.544L1342.42 600.493L1353.37 456.605ZM1197.54 589.468L1208.49 445.58L1064.6 434.631L1053.65 578.519L1197.54 589.468ZM1052.65 578.443L1063.6 434.555L919.715 423.606L908.766 567.494L1052.65 578.443ZM907.769 567.419L918.718 423.53L774.83 412.581L763.881 556.47L907.769 567.419ZM762.884 556.394L773.833 412.506L629.945 401.557L618.996 545.445L762.884 556.394ZM617.999 545.369L628.948 401.481L485.06 390.532L474.112 534.42L617.999 545.369ZM473.115 534.344L484.063 390.456L340.175 379.507L329.227 523.396L473.115 534.344ZM328.229 523.32L339.178 379.431L195.291 368.483L184.342 512.371L328.229 523.32ZM183.345 512.295L194.294 368.407L50.4055 357.458L39.4566 501.346L183.345 512.295ZM38.4595 501.27L49.4084 357.382L-94.5327 346.429L-105.46 490.319L38.4595 501.27ZM-94.4569 345.432L49.4843 356.385L60.4331 212.497L-83.5298 201.543L-94.4569 345.432ZM1241.56 10.9251L1097.67 -0.0237426L1086.73 143.864L1230.61 154.813L1241.56 10.9251ZM1230.54 155.81L1086.65 144.861L1075.7 288.749L1219.59 299.698L1230.54 155.81ZM1219.51 300.695L1075.63 289.746L1064.68 433.634L1208.56 444.583L1219.51 300.695ZM1063.68 433.558L1074.63 289.67L930.74 278.722L919.791 422.609L1063.68 433.558ZM918.794 422.533L929.743 278.646L785.854 267.697L774.906 411.584L918.794 422.533ZM773.909 411.509L784.857 267.621L640.97 256.672L630.021 400.56L773.909 411.509ZM629.024 400.484L639.973 256.596L496.085 245.647L485.136 389.535L629.024 400.484ZM484.139 389.459L495.088 245.571L351.2 234.623L340.251 378.51L484.139 389.459ZM339.254 378.434L350.203 234.547L206.315 223.598L195.367 367.485L339.254 378.434ZM194.37 367.41L205.318 223.522L61.4302 212.573L50.4814 356.461L194.37 367.41ZM61.5061 211.576L205.394 222.525L216.343 78.6367L72.455 67.6879L61.5061 211.576ZM1096.68 -0.0996093L952.79 -11.0485L941.841 132.839L1085.73 143.788L1096.68 -0.0996093ZM1085.65 144.785L941.765 133.836L930.816 277.724L1074.7 288.673L1085.65 144.785ZM929.819 277.649L940.768 133.76L796.879 122.812L785.93 266.7L929.819 277.649ZM784.933 266.624L795.882 122.736L651.995 111.787L641.046 255.675L784.933 266.624ZM640.049 255.599L650.998 111.711L507.11 100.762L496.161 244.65L640.049 255.599ZM495.164 244.574L506.113 100.686L362.225 89.7373L351.276 233.625L495.164 244.574ZM350.279 233.55L361.228 89.6615L217.34 78.7126L206.391 222.601L350.279 233.55ZM951.792 -11.1244L807.904 -22.0733L796.955 121.814L940.844 132.763L951.792 -11.1244ZM795.958 121.739L806.907 -22.1492L663.019 -33.098L652.071 110.79L795.958 121.739ZM651.074 110.714L662.022 -33.1739L518.135 -44.1227L507.186 99.765L651.074 110.714ZM506.189 99.6892L517.138 -44.1986L373.25 -55.1475L362.301 88.7402L506.189 99.6892Z" fill="#BFBBBA"/>
</g>
</svg>